<svg width="1200" height="630" viewBox="0 0 1200 630" fill="none" xmlns="http://www.w3.org/2000/svg">
  <rect width="1200" height="630" fill="#F6F1E8"/>
  <rect x="46" y="46" width="1108" height="538" rx="36" fill="#FFF9F0" stroke="#1D3557" stroke-opacity="0.16"/>
  <circle cx="1006" cy="148" r="118" fill="#D4A73A" fill-opacity="0.18"/>
  <circle cx="182" cy="542" r="146" fill="#0F766E" fill-opacity="0.10"/>
  <text x="108" y="178" fill="#1D3557" font-family="'IBM Plex Sans', sans-serif" font-size="68" font-weight="700">Session Review</text>
  <text x="108" y="244" fill="#1D3557" font-family="'IBM Plex Sans', sans-serif" font-size="68" font-weight="700">Visual Explainer</text>
  <text x="108" y="304" fill="#5D697D" font-family="'IBM Plex Sans', sans-serif" font-size="28">
    Audit logs. Measure autonomy. Publish shareable HTML recaps.
  </text>
  <rect x="108" y="368" width="470" height="120" rx="24" fill="#1D3557" fill-opacity="0.06" stroke="#1D3557" stroke-opacity="0.08"/>
  <text x="140" y="416" fill="#5D697D" font-family="'IBM Plex Sans', sans-serif" font-size="20" letter-spacing="2">HEADLINE METRIC</text>
  <text x="140" y="468" fill="#1D3557" font-family="'IBM Plex Sans', sans-serif" font-size="52" font-weight="700">Autonomous Coding Time</text>
  <rect x="652" y="152" width="374" height="22" rx="11" fill="#1D3557" fill-opacity="0.08"/>
  <rect x="652" y="152" width="316" height="22" rx="11" fill="#1D3557"/>
  <rect x="652" y="206" width="374" height="22" rx="11" fill="#1D3557" fill-opacity="0.08"/>
  <rect x="652" y="206" width="226" height="22" rx="11" fill="#D4A73A"/>
  <rect x="652" y="260" width="374" height="22" rx="11" fill="#1D3557" fill-opacity="0.08"/>
  <rect x="652" y="260" width="154" height="22" rx="11" fill="#0F766E"/>
  <text x="652" y="138" fill="#5D697D" font-family="'IBM Plex Sans', sans-serif" font-size="18" letter-spacing="2">CHART LANGUAGE</text>
  <text x="1048" y="170" text-anchor="end" fill="#1D3557" font-family="'IBM Plex Mono', monospace" font-size="18">tool mix</text>
  <text x="1048" y="224" text-anchor="end" fill="#1D3557" font-family="'IBM Plex Mono', monospace" font-size="18">merged runs</text>
  <text x="1048" y="278" text-anchor="end" fill="#1D3557" font-family="'IBM Plex Mono', monospace" font-size="18">idle gaps</text>
</svg>
